# xmcd
#
# Track frame offsets:
#  150
#  16310
#  32248
#  52557
#  67487
#  87158
#  98923
#  110788
#  133085
#  151390
#  168893
#  183932
#  203188
#  215208
#
# Disc length: 3138 seconds
#
# Revision: 0
# Processed by: cddbd v1.5.1PL2 Copyright (c) Steve Scherf et al.
# Submitted via: Collectorz.com_Music_Collector 6.9
#
DISCID=c60c400e
DTITLE=The Moochers - Play The Game
DYEAR=2005
DGENRE=Blues
TTITLE0=Listen To Me
TTITLE1=House Of Cards
TTITLE2=Play The Game
TTITLE3=Goin' Away
TTITLE4=Hide And Seek
TTITLE5=Lubrication
TTITLE6=Smiling Face
TTITLE7=Look Down
TTITLE8=Waiting
TTITLE9=Never Get Far
TTITLE10=Technology
TTITLE11=Take It Easy
TTITLE12=Rockin' On
TTITLE13=40tude
EXTD=
EXTT0=
EXTT1=
EXTT2=
EXTT3=
EXTT4=
EXTT5=
EXTT6=
EXTT7=
EXTT8=
EXTT9=
EXTT10=
EXTT11=
EXTT12=
EXTT13=
PLAYORDER=
